M48
; DRILL file {KiCad (6.0.4)} date Thu Apr 28 20:07:17 2022
; FORMAT={-:-/ absolute / inch / decimal}
; #@! TF.CreationDate,2022-04-28T20:07:17-04:00
; #@! TF.GenerationSoftware,Kicad,Pcbnew,(6.0.4)
; #@! TF.FileFunction,MixedPlating,1,2
FMAT,2
INCH
; #@! TA.AperFunction,Plated,PTH,ComponentDrill
T1C0.0315
; #@! TA.AperFunction,Plated,PTH,ComponentDrill
T2C0.0394
; #@! TA.AperFunction,Plated,PTH,ViaDrill
T3C0.0591
; #@! TA.AperFunction,NonPlated,NPTH,ComponentDrill
T4C0.1260
%
G90
G05
T1
X1.82Y-4.2797
X1.92Y-4.3797
X1.92Y-4.58
X2.02Y-4.2797
X2.22Y-4.58
X2.36Y-4.12
X2.36Y-4.42
X2.5003Y-4.42
X2.6003Y-4.32
X2.6003Y-4.52
X3.08Y-3.63
X3.38Y-3.63
X3.7Y-3.66
X3.99Y-4.14
X3.99Y-4.44
X4.0Y-3.66
X4.12Y-3.66
X4.42Y-3.66
T2
X1.371Y-3.7904
X1.371Y-3.8904
X1.371Y-3.9904
X1.371Y-4.0904
X1.371Y-4.1904
X1.371Y-4.2904
X1.371Y-4.3904
X1.371Y-4.4904
X1.371Y-4.5904
X1.371Y-4.6904
X1.371Y-4.7904
X1.371Y-4.8904
X1.371Y-4.9904
X1.371Y-5.0904
X1.9685Y-3.937
X1.9685Y-4.8957
X2.0685Y-3.937
X2.0685Y-4.8957
X2.1685Y-3.937
X2.1685Y-4.8957
X2.2685Y-3.937
X2.2685Y-4.8957
X2.3685Y-3.937
X2.3685Y-4.8957
X2.3792Y-3.64
X2.4685Y-3.937
X2.4685Y-4.8957
X2.4792Y-3.64
X2.5685Y-3.937
X2.5685Y-4.8957
X2.6685Y-3.937
X2.6685Y-4.8957
X2.73Y-3.64
X2.7685Y-3.937
X2.7685Y-4.8957
X2.83Y-3.64
X2.8685Y-3.937
X2.8685Y-4.8957
X2.93Y-3.64
X2.9685Y-3.937
X2.9685Y-4.8957
X3.0685Y-3.937
X3.0685Y-4.8957
X3.0706Y-4.709
X3.1685Y-3.937
X3.1685Y-4.8957
X3.1706Y-4.709
X3.2685Y-3.937
X3.2685Y-4.8957
X3.2706Y-4.709
X3.3685Y-3.937
X3.3685Y-4.8957
X3.3706Y-4.709
X3.4685Y-3.937
X3.4685Y-4.8957
X3.4706Y-4.709
X3.5685Y-3.937
X3.5685Y-4.8957
X3.5706Y-4.709
X3.6685Y-3.937
X3.6685Y-4.8957
X3.6706Y-4.709
X3.7685Y-3.937
X3.7685Y-4.8957
X3.7706Y-4.709
X4.3462Y-4.889
X4.4462Y-4.889
X4.5462Y-4.889
X4.6462Y-4.889
T3
X1.1827Y-4.0315
X1.227Y-4.7594
X1.2441Y-4.4402
X1.27Y-3.7
X1.5Y-4.77
X1.5365Y-4.59
X1.78Y-4.65
X1.81Y-3.77
X2.05Y-5.069
X2.74Y-3.79
X2.76Y-5.13
X3.0Y-5.14
X3.2657Y-5.0366
X3.28Y-4.13
X3.44Y-4.55
X3.67Y-5.04
X4.0Y-3.87
X4.23Y-4.13
T4
X1.54Y-5.07
X1.91Y-3.57
X4.62Y-3.6
X4.62Y-5.11
T0
M30
