M48
; DRILL file {KiCad 5.1.5+dfsg1-2build2} date Sun 24 Apr 2022 12:37:54 AM EDT
; FORMAT={-:-/ absolute / inch / decimal}
; #@! TF.CreationDate,2022-04-24T00:37:54-04:00
; #@! TF.GenerationSoftware,Kicad,Pcbnew,5.1.5+dfsg1-2build2
FMAT,2
INCH
T1C0.0315
T2C0.0394
T3C0.1260
%
G90
G05
T1
X4.315Y-4.4874
X4.315Y-4.5874
X4.315Y-4.6874
X4.315Y-4.7874
X4.5827Y-5.1732
X4.6827Y-5.1732
X4.7827Y-5.1732
X4.8827Y-5.1732
X5.0551Y-4.0787
X5.0945Y-4.6457
X5.2756Y-3.9291
T2
X5.3543Y-4.2992
X5.3543Y-4.3992
X5.3543Y-4.4992
X5.3543Y-4.5992
X5.3543Y-4.6992
X4.7291Y-3.6142
X4.8291Y-3.6142
X4.9291Y-3.6142
T3
X5.2756Y-3.7008
X4.378Y-3.7008
X4.378Y-5.189
X5.2756Y-5.189
T0
M30
