G04 #@! TF.GenerationSoftware,KiCad,Pcbnew,5.1.5+dfsg1-2build2*
G04 #@! TF.CreationDate,2022-04-24T00:37:48-04:00*
G04 #@! TF.ProjectId,maghand,6d616768-616e-4642-9e6b-696361645f70,rev?*
G04 #@! TF.SameCoordinates,Original*
G04 #@! TF.FileFunction,Copper,L1,Top*
G04 #@! TF.FilePolarity,Positive*
%FSLAX46Y46*%
G04 Gerber Fmt 4.6, Leading zero omitted, Abs format (unit mm)*
G04 Created by KiCad (PCBNEW 5.1.5+dfsg1-2build2) date 2022-04-24 00:37:48*
%MOMM*%
%LPD*%
G04 APERTURE LIST*
%ADD10O,1.700000X1.700000*%
%ADD11R,1.700000X1.700000*%
%ADD12C,0.100000*%
%ADD13R,10.800000X9.400000*%
%ADD14R,0.800000X4.600000*%
%ADD15R,6.000000X6.000000*%
%ADD16C,1.600000*%
%ADD17C,0.750000*%
%ADD18C,1.000000*%
%ADD19C,0.254000*%
G04 APERTURE END LIST*
D10*
X120120000Y-91800000D03*
X122660000Y-91800000D03*
D11*
X125200000Y-91800000D03*
G04 #@! TA.AperFunction,SMDPad,CuDef*
D12*
G36*
X130914703Y-110795722D02*
G01*
X130929264Y-110797882D01*
X130943543Y-110801459D01*
X130957403Y-110806418D01*
X130970710Y-110812712D01*
X130983336Y-110820280D01*
X130995159Y-110829048D01*
X131006066Y-110838934D01*
X131015952Y-110849841D01*
X131024720Y-110861664D01*
X131032288Y-110874290D01*
X131038582Y-110887597D01*
X131043541Y-110901457D01*
X131047118Y-110915736D01*
X131049278Y-110930297D01*
X131050000Y-110945000D01*
X131050000Y-111245000D01*
X131049278Y-111259703D01*
X131047118Y-111274264D01*
X131043541Y-111288543D01*
X131038582Y-111302403D01*
X131032288Y-111315710D01*
X131024720Y-111328336D01*
X131015952Y-111340159D01*
X131006066Y-111351066D01*
X130995159Y-111360952D01*
X130983336Y-111369720D01*
X130970710Y-111377288D01*
X130957403Y-111383582D01*
X130943543Y-111388541D01*
X130929264Y-111392118D01*
X130914703Y-111394278D01*
X130900000Y-111395000D01*
X129250000Y-111395000D01*
X129235297Y-111394278D01*
X129220736Y-111392118D01*
X129206457Y-111388541D01*
X129192597Y-111383582D01*
X129179290Y-111377288D01*
X129166664Y-111369720D01*
X129154841Y-111360952D01*
X129143934Y-111351066D01*
X129134048Y-111340159D01*
X129125280Y-111328336D01*
X129117712Y-111315710D01*
X129111418Y-111302403D01*
X129106459Y-111288543D01*
X129102882Y-111274264D01*
X129100722Y-111259703D01*
X129100000Y-111245000D01*
X129100000Y-110945000D01*
X129100722Y-110930297D01*
X129102882Y-110915736D01*
X129106459Y-110901457D01*
X129111418Y-110887597D01*
X129117712Y-110874290D01*
X129125280Y-110861664D01*
X129134048Y-110849841D01*
X129143934Y-110838934D01*
X129154841Y-110829048D01*
X129166664Y-110820280D01*
X129179290Y-110812712D01*
X129192597Y-110806418D01*
X129206457Y-110801459D01*
X129220736Y-110797882D01*
X129235297Y-110795722D01*
X129250000Y-110795000D01*
X130900000Y-110795000D01*
X130914703Y-110795722D01*
G37*
G04 #@! TD.AperFunction*
G04 #@! TA.AperFunction,SMDPad,CuDef*
G36*
X130914703Y-112065722D02*
G01*
X130929264Y-112067882D01*
X130943543Y-112071459D01*
X130957403Y-112076418D01*
X130970710Y-112082712D01*
X130983336Y-112090280D01*
X130995159Y-112099048D01*
X131006066Y-112108934D01*
X131015952Y-112119841D01*
X131024720Y-112131664D01*
X131032288Y-112144290D01*
X131038582Y-112157597D01*
X131043541Y-112171457D01*
X131047118Y-112185736D01*
X131049278Y-112200297D01*
X131050000Y-112215000D01*
X131050000Y-112515000D01*
X131049278Y-112529703D01*
X131047118Y-112544264D01*
X131043541Y-112558543D01*
X131038582Y-112572403D01*
X131032288Y-112585710D01*
X131024720Y-112598336D01*
X131015952Y-112610159D01*
X131006066Y-112621066D01*
X130995159Y-112630952D01*
X130983336Y-112639720D01*
X130970710Y-112647288D01*
X130957403Y-112653582D01*
X130943543Y-112658541D01*
X130929264Y-112662118D01*
X130914703Y-112664278D01*
X130900000Y-112665000D01*
X129250000Y-112665000D01*
X129235297Y-112664278D01*
X129220736Y-112662118D01*
X129206457Y-112658541D01*
X129192597Y-112653582D01*
X129179290Y-112647288D01*
X129166664Y-112639720D01*
X129154841Y-112630952D01*
X129143934Y-112621066D01*
X129134048Y-112610159D01*
X129125280Y-112598336D01*
X129117712Y-112585710D01*
X129111418Y-112572403D01*
X129106459Y-112558543D01*
X129102882Y-112544264D01*
X129100722Y-112529703D01*
X129100000Y-112515000D01*
X129100000Y-112215000D01*
X129100722Y-112200297D01*
X129102882Y-112185736D01*
X129106459Y-112171457D01*
X129111418Y-112157597D01*
X129117712Y-112144290D01*
X129125280Y-112131664D01*
X129134048Y-112119841D01*
X129143934Y-112108934D01*
X129154841Y-112099048D01*
X129166664Y-112090280D01*
X129179290Y-112082712D01*
X129192597Y-112076418D01*
X129206457Y-112071459D01*
X129220736Y-112067882D01*
X129235297Y-112065722D01*
X129250000Y-112065000D01*
X130900000Y-112065000D01*
X130914703Y-112065722D01*
G37*
G04 #@! TD.AperFunction*
G04 #@! TA.AperFunction,SMDPad,CuDef*
G36*
X130914703Y-113335722D02*
G01*
X130929264Y-113337882D01*
X130943543Y-113341459D01*
X130957403Y-113346418D01*
X130970710Y-113352712D01*
X130983336Y-113360280D01*
X130995159Y-113369048D01*
X131006066Y-113378934D01*
X131015952Y-113389841D01*
X131024720Y-113401664D01*
X131032288Y-113414290D01*
X131038582Y-113427597D01*
X131043541Y-113441457D01*
X131047118Y-113455736D01*
X131049278Y-113470297D01*
X131050000Y-113485000D01*
X131050000Y-113785000D01*
X131049278Y-113799703D01*
X131047118Y-113814264D01*
X131043541Y-113828543D01*
X131038582Y-113842403D01*
X131032288Y-113855710D01*
X131024720Y-113868336D01*
X131015952Y-113880159D01*
X131006066Y-113891066D01*
X130995159Y-113900952D01*
X130983336Y-113909720D01*
X130970710Y-113917288D01*
X130957403Y-113923582D01*
X130943543Y-113928541D01*
X130929264Y-113932118D01*
X130914703Y-113934278D01*
X130900000Y-113935000D01*
X129250000Y-113935000D01*
X129235297Y-113934278D01*
X129220736Y-113932118D01*
X129206457Y-113928541D01*
X129192597Y-113923582D01*
X129179290Y-113917288D01*
X129166664Y-113909720D01*
X129154841Y-113900952D01*
X129143934Y-113891066D01*
X129134048Y-113880159D01*
X129125280Y-113868336D01*
X129117712Y-113855710D01*
X129111418Y-113842403D01*
X129106459Y-113828543D01*
X129102882Y-113814264D01*
X129100722Y-113799703D01*
X129100000Y-113785000D01*
X129100000Y-113485000D01*
X129100722Y-113470297D01*
X129102882Y-113455736D01*
X129106459Y-113441457D01*
X129111418Y-113427597D01*
X129117712Y-113414290D01*
X129125280Y-113401664D01*
X129134048Y-113389841D01*
X129143934Y-113378934D01*
X129154841Y-113369048D01*
X129166664Y-113360280D01*
X129179290Y-113352712D01*
X129192597Y-113346418D01*
X129206457Y-113341459D01*
X129220736Y-113337882D01*
X129235297Y-113335722D01*
X129250000Y-113335000D01*
X130900000Y-113335000D01*
X130914703Y-113335722D01*
G37*
G04 #@! TD.AperFunction*
G04 #@! TA.AperFunction,SMDPad,CuDef*
G36*
X130914703Y-114605722D02*
G01*
X130929264Y-114607882D01*
X130943543Y-114611459D01*
X130957403Y-114616418D01*
X130970710Y-114622712D01*
X130983336Y-114630280D01*
X130995159Y-114639048D01*
X131006066Y-114648934D01*
X131015952Y-114659841D01*
X131024720Y-114671664D01*
X131032288Y-114684290D01*
X131038582Y-114697597D01*
X131043541Y-114711457D01*
X131047118Y-114725736D01*
X131049278Y-114740297D01*
X131050000Y-114755000D01*
X131050000Y-115055000D01*
X131049278Y-115069703D01*
X131047118Y-115084264D01*
X131043541Y-115098543D01*
X131038582Y-115112403D01*
X131032288Y-115125710D01*
X131024720Y-115138336D01*
X131015952Y-115150159D01*
X131006066Y-115161066D01*
X130995159Y-115170952D01*
X130983336Y-115179720D01*
X130970710Y-115187288D01*
X130957403Y-115193582D01*
X130943543Y-115198541D01*
X130929264Y-115202118D01*
X130914703Y-115204278D01*
X130900000Y-115205000D01*
X129250000Y-115205000D01*
X129235297Y-115204278D01*
X129220736Y-115202118D01*
X129206457Y-115198541D01*
X129192597Y-115193582D01*
X129179290Y-115187288D01*
X129166664Y-115179720D01*
X129154841Y-115170952D01*
X129143934Y-115161066D01*
X129134048Y-115150159D01*
X129125280Y-115138336D01*
X129117712Y-115125710D01*
X129111418Y-115112403D01*
X129106459Y-115098543D01*
X129102882Y-115084264D01*
X129100722Y-115069703D01*
X129100000Y-115055000D01*
X129100000Y-114755000D01*
X129100722Y-114740297D01*
X129102882Y-114725736D01*
X129106459Y-114711457D01*
X129111418Y-114697597D01*
X129117712Y-114684290D01*
X129125280Y-114671664D01*
X129134048Y-114659841D01*
X129143934Y-114648934D01*
X129154841Y-114639048D01*
X129166664Y-114630280D01*
X129179290Y-114622712D01*
X129192597Y-114616418D01*
X129206457Y-114611459D01*
X129220736Y-114607882D01*
X129235297Y-114605722D01*
X129250000Y-114605000D01*
X130900000Y-114605000D01*
X130914703Y-114605722D01*
G37*
G04 #@! TD.AperFunction*
G04 #@! TA.AperFunction,SMDPad,CuDef*
G36*
X125964703Y-114605722D02*
G01*
X125979264Y-114607882D01*
X125993543Y-114611459D01*
X126007403Y-114616418D01*
X126020710Y-114622712D01*
X126033336Y-114630280D01*
X126045159Y-114639048D01*
X126056066Y-114648934D01*
X126065952Y-114659841D01*
X126074720Y-114671664D01*
X126082288Y-114684290D01*
X126088582Y-114697597D01*
X126093541Y-114711457D01*
X126097118Y-114725736D01*
X126099278Y-114740297D01*
X126100000Y-114755000D01*
X126100000Y-115055000D01*
X126099278Y-115069703D01*
X126097118Y-115084264D01*
X126093541Y-115098543D01*
X126088582Y-115112403D01*
X126082288Y-115125710D01*
X126074720Y-115138336D01*
X126065952Y-115150159D01*
X126056066Y-115161066D01*
X126045159Y-115170952D01*
X126033336Y-115179720D01*
X126020710Y-115187288D01*
X126007403Y-115193582D01*
X125993543Y-115198541D01*
X125979264Y-115202118D01*
X125964703Y-115204278D01*
X125950000Y-115205000D01*
X124300000Y-115205000D01*
X124285297Y-115204278D01*
X124270736Y-115202118D01*
X124256457Y-115198541D01*
X124242597Y-115193582D01*
X124229290Y-115187288D01*
X124216664Y-115179720D01*
X124204841Y-115170952D01*
X124193934Y-115161066D01*
X124184048Y-115150159D01*
X124175280Y-115138336D01*
X124167712Y-115125710D01*
X124161418Y-115112403D01*
X124156459Y-115098543D01*
X124152882Y-115084264D01*
X124150722Y-115069703D01*
X124150000Y-115055000D01*
X124150000Y-114755000D01*
X124150722Y-114740297D01*
X124152882Y-114725736D01*
X124156459Y-114711457D01*
X124161418Y-114697597D01*
X124167712Y-114684290D01*
X124175280Y-114671664D01*
X124184048Y-114659841D01*
X124193934Y-114648934D01*
X124204841Y-114639048D01*
X124216664Y-114630280D01*
X124229290Y-114622712D01*
X124242597Y-114616418D01*
X124256457Y-114611459D01*
X124270736Y-114607882D01*
X124285297Y-114605722D01*
X124300000Y-114605000D01*
X125950000Y-114605000D01*
X125964703Y-114605722D01*
G37*
G04 #@! TD.AperFunction*
G04 #@! TA.AperFunction,SMDPad,CuDef*
G36*
X125964703Y-113335722D02*
G01*
X125979264Y-113337882D01*
X125993543Y-113341459D01*
X126007403Y-113346418D01*
X126020710Y-113352712D01*
X126033336Y-113360280D01*
X126045159Y-113369048D01*
X126056066Y-113378934D01*
X126065952Y-113389841D01*
X126074720Y-113401664D01*
X126082288Y-113414290D01*
X126088582Y-113427597D01*
X126093541Y-113441457D01*
X126097118Y-113455736D01*
X126099278Y-113470297D01*
X126100000Y-113485000D01*
X126100000Y-113785000D01*
X126099278Y-113799703D01*
X126097118Y-113814264D01*
X126093541Y-113828543D01*
X126088582Y-113842403D01*
X126082288Y-113855710D01*
X126074720Y-113868336D01*
X126065952Y-113880159D01*
X126056066Y-113891066D01*
X126045159Y-113900952D01*
X126033336Y-113909720D01*
X126020710Y-113917288D01*
X126007403Y-113923582D01*
X125993543Y-113928541D01*
X125979264Y-113932118D01*
X125964703Y-113934278D01*
X125950000Y-113935000D01*
X124300000Y-113935000D01*
X124285297Y-113934278D01*
X124270736Y-113932118D01*
X124256457Y-113928541D01*
X124242597Y-113923582D01*
X124229290Y-113917288D01*
X124216664Y-113909720D01*
X124204841Y-113900952D01*
X124193934Y-113891066D01*
X124184048Y-113880159D01*
X124175280Y-113868336D01*
X124167712Y-113855710D01*
X124161418Y-113842403D01*
X124156459Y-113828543D01*
X124152882Y-113814264D01*
X124150722Y-113799703D01*
X124150000Y-113785000D01*
X124150000Y-113485000D01*
X124150722Y-113470297D01*
X124152882Y-113455736D01*
X124156459Y-113441457D01*
X124161418Y-113427597D01*
X124167712Y-113414290D01*
X124175280Y-113401664D01*
X124184048Y-113389841D01*
X124193934Y-113378934D01*
X124204841Y-113369048D01*
X124216664Y-113360280D01*
X124229290Y-113352712D01*
X124242597Y-113346418D01*
X124256457Y-113341459D01*
X124270736Y-113337882D01*
X124285297Y-113335722D01*
X124300000Y-113335000D01*
X125950000Y-113335000D01*
X125964703Y-113335722D01*
G37*
G04 #@! TD.AperFunction*
G04 #@! TA.AperFunction,SMDPad,CuDef*
G36*
X125964703Y-112065722D02*
G01*
X125979264Y-112067882D01*
X125993543Y-112071459D01*
X126007403Y-112076418D01*
X126020710Y-112082712D01*
X126033336Y-112090280D01*
X126045159Y-112099048D01*
X126056066Y-112108934D01*
X126065952Y-112119841D01*
X126074720Y-112131664D01*
X126082288Y-112144290D01*
X126088582Y-112157597D01*
X126093541Y-112171457D01*
X126097118Y-112185736D01*
X126099278Y-112200297D01*
X126100000Y-112215000D01*
X126100000Y-112515000D01*
X126099278Y-112529703D01*
X126097118Y-112544264D01*
X126093541Y-112558543D01*
X126088582Y-112572403D01*
X126082288Y-112585710D01*
X126074720Y-112598336D01*
X126065952Y-112610159D01*
X126056066Y-112621066D01*
X126045159Y-112630952D01*
X126033336Y-112639720D01*
X126020710Y-112647288D01*
X126007403Y-112653582D01*
X125993543Y-112658541D01*
X125979264Y-112662118D01*
X125964703Y-112664278D01*
X125950000Y-112665000D01*
X124300000Y-112665000D01*
X124285297Y-112664278D01*
X124270736Y-112662118D01*
X124256457Y-112658541D01*
X124242597Y-112653582D01*
X124229290Y-112647288D01*
X124216664Y-112639720D01*
X124204841Y-112630952D01*
X124193934Y-112621066D01*
X124184048Y-112610159D01*
X124175280Y-112598336D01*
X124167712Y-112585710D01*
X124161418Y-112572403D01*
X124156459Y-112558543D01*
X124152882Y-112544264D01*
X124150722Y-112529703D01*
X124150000Y-112515000D01*
X124150000Y-112215000D01*
X124150722Y-112200297D01*
X124152882Y-112185736D01*
X124156459Y-112171457D01*
X124161418Y-112157597D01*
X124167712Y-112144290D01*
X124175280Y-112131664D01*
X124184048Y-112119841D01*
X124193934Y-112108934D01*
X124204841Y-112099048D01*
X124216664Y-112090280D01*
X124229290Y-112082712D01*
X124242597Y-112076418D01*
X124256457Y-112071459D01*
X124270736Y-112067882D01*
X124285297Y-112065722D01*
X124300000Y-112065000D01*
X125950000Y-112065000D01*
X125964703Y-112065722D01*
G37*
G04 #@! TD.AperFunction*
G04 #@! TA.AperFunction,SMDPad,CuDef*
G36*
X125964703Y-110795722D02*
G01*
X125979264Y-110797882D01*
X125993543Y-110801459D01*
X126007403Y-110806418D01*
X126020710Y-110812712D01*
X126033336Y-110820280D01*
X126045159Y-110829048D01*
X126056066Y-110838934D01*
X126065952Y-110849841D01*
X126074720Y-110861664D01*
X126082288Y-110874290D01*
X126088582Y-110887597D01*
X126093541Y-110901457D01*
X126097118Y-110915736D01*
X126099278Y-110930297D01*
X126100000Y-110945000D01*
X126100000Y-111245000D01*
X126099278Y-111259703D01*
X126097118Y-111274264D01*
X126093541Y-111288543D01*
X126088582Y-111302403D01*
X126082288Y-111315710D01*
X126074720Y-111328336D01*
X126065952Y-111340159D01*
X126056066Y-111351066D01*
X126045159Y-111360952D01*
X126033336Y-111369720D01*
X126020710Y-111377288D01*
X126007403Y-111383582D01*
X125993543Y-111388541D01*
X125979264Y-111392118D01*
X125964703Y-111394278D01*
X125950000Y-111395000D01*
X124300000Y-111395000D01*
X124285297Y-111394278D01*
X124270736Y-111392118D01*
X124256457Y-111388541D01*
X124242597Y-111383582D01*
X124229290Y-111377288D01*
X124216664Y-111369720D01*
X124204841Y-111360952D01*
X124193934Y-111351066D01*
X124184048Y-111340159D01*
X124175280Y-111328336D01*
X124167712Y-111315710D01*
X124161418Y-111302403D01*
X124156459Y-111288543D01*
X124152882Y-111274264D01*
X124150722Y-111259703D01*
X124150000Y-111245000D01*
X124150000Y-110945000D01*
X124150722Y-110930297D01*
X124152882Y-110915736D01*
X124156459Y-110901457D01*
X124161418Y-110887597D01*
X124167712Y-110874290D01*
X124175280Y-110861664D01*
X124184048Y-110849841D01*
X124193934Y-110838934D01*
X124204841Y-110829048D01*
X124216664Y-110820280D01*
X124229290Y-110812712D01*
X124242597Y-110806418D01*
X124256457Y-110801459D01*
X124270736Y-110797882D01*
X124285297Y-110795722D01*
X124300000Y-110795000D01*
X125950000Y-110795000D01*
X125964703Y-110795722D01*
G37*
G04 #@! TD.AperFunction*
G04 #@! TA.AperFunction,SMDPad,CuDef*
G36*
X125764703Y-125005722D02*
G01*
X125779264Y-125007882D01*
X125793543Y-125011459D01*
X125807403Y-125016418D01*
X125820710Y-125022712D01*
X125833336Y-125030280D01*
X125845159Y-125039048D01*
X125856066Y-125048934D01*
X125865952Y-125059841D01*
X125874720Y-125071664D01*
X125882288Y-125084290D01*
X125888582Y-125097597D01*
X125893541Y-125111457D01*
X125897118Y-125125736D01*
X125899278Y-125140297D01*
X125900000Y-125155000D01*
X125900000Y-125455000D01*
X125899278Y-125469703D01*
X125897118Y-125484264D01*
X125893541Y-125498543D01*
X125888582Y-125512403D01*
X125882288Y-125525710D01*
X125874720Y-125538336D01*
X125865952Y-125550159D01*
X125856066Y-125561066D01*
X125845159Y-125570952D01*
X125833336Y-125579720D01*
X125820710Y-125587288D01*
X125807403Y-125593582D01*
X125793543Y-125598541D01*
X125779264Y-125602118D01*
X125764703Y-125604278D01*
X125750000Y-125605000D01*
X124300000Y-125605000D01*
X124285297Y-125604278D01*
X124270736Y-125602118D01*
X124256457Y-125598541D01*
X124242597Y-125593582D01*
X124229290Y-125587288D01*
X124216664Y-125579720D01*
X124204841Y-125570952D01*
X124193934Y-125561066D01*
X124184048Y-125550159D01*
X124175280Y-125538336D01*
X124167712Y-125525710D01*
X124161418Y-125512403D01*
X124156459Y-125498543D01*
X124152882Y-125484264D01*
X124150722Y-125469703D01*
X124150000Y-125455000D01*
X124150000Y-125155000D01*
X124150722Y-125140297D01*
X124152882Y-125125736D01*
X124156459Y-125111457D01*
X124161418Y-125097597D01*
X124167712Y-125084290D01*
X124175280Y-125071664D01*
X124184048Y-125059841D01*
X124193934Y-125048934D01*
X124204841Y-125039048D01*
X124216664Y-125030280D01*
X124229290Y-125022712D01*
X124242597Y-125016418D01*
X124256457Y-125011459D01*
X124270736Y-125007882D01*
X124285297Y-125005722D01*
X124300000Y-125005000D01*
X125750000Y-125005000D01*
X125764703Y-125005722D01*
G37*
G04 #@! TD.AperFunction*
G04 #@! TA.AperFunction,SMDPad,CuDef*
G36*
X125764703Y-123735722D02*
G01*
X125779264Y-123737882D01*
X125793543Y-123741459D01*
X125807403Y-123746418D01*
X125820710Y-123752712D01*
X125833336Y-123760280D01*
X125845159Y-123769048D01*
X125856066Y-123778934D01*
X125865952Y-123789841D01*
X125874720Y-123801664D01*
X125882288Y-123814290D01*
X125888582Y-123827597D01*
X125893541Y-123841457D01*
X125897118Y-123855736D01*
X125899278Y-123870297D01*
X125900000Y-123885000D01*
X125900000Y-124185000D01*
X125899278Y-124199703D01*
X125897118Y-124214264D01*
X125893541Y-124228543D01*
X125888582Y-124242403D01*
X125882288Y-124255710D01*
X125874720Y-124268336D01*
X125865952Y-124280159D01*
X125856066Y-124291066D01*
X125845159Y-124300952D01*
X125833336Y-124309720D01*
X125820710Y-124317288D01*
X125807403Y-124323582D01*
X125793543Y-124328541D01*
X125779264Y-124332118D01*
X125764703Y-124334278D01*
X125750000Y-124335000D01*
X124300000Y-124335000D01*
X124285297Y-124334278D01*
X124270736Y-124332118D01*
X124256457Y-124328541D01*
X124242597Y-124323582D01*
X124229290Y-124317288D01*
X124216664Y-124309720D01*
X124204841Y-124300952D01*
X124193934Y-124291066D01*
X124184048Y-124280159D01*
X124175280Y-124268336D01*
X124167712Y-124255710D01*
X124161418Y-124242403D01*
X124156459Y-124228543D01*
X124152882Y-124214264D01*
X124150722Y-124199703D01*
X124150000Y-124185000D01*
X124150000Y-123885000D01*
X124150722Y-123870297D01*
X124152882Y-123855736D01*
X124156459Y-123841457D01*
X124161418Y-123827597D01*
X124167712Y-123814290D01*
X124175280Y-123801664D01*
X124184048Y-123789841D01*
X124193934Y-123778934D01*
X124204841Y-123769048D01*
X124216664Y-123760280D01*
X124229290Y-123752712D01*
X124242597Y-123746418D01*
X124256457Y-123741459D01*
X124270736Y-123737882D01*
X124285297Y-123735722D01*
X124300000Y-123735000D01*
X125750000Y-123735000D01*
X125764703Y-123735722D01*
G37*
G04 #@! TD.AperFunction*
G04 #@! TA.AperFunction,SMDPad,CuDef*
G36*
X125764703Y-122465722D02*
G01*
X125779264Y-122467882D01*
X125793543Y-122471459D01*
X125807403Y-122476418D01*
X125820710Y-122482712D01*
X125833336Y-122490280D01*
X125845159Y-122499048D01*
X125856066Y-122508934D01*
X125865952Y-122519841D01*
X125874720Y-122531664D01*
X125882288Y-122544290D01*
X125888582Y-122557597D01*
X125893541Y-122571457D01*
X125897118Y-122585736D01*
X125899278Y-122600297D01*
X125900000Y-122615000D01*
X125900000Y-122915000D01*
X125899278Y-122929703D01*
X125897118Y-122944264D01*
X125893541Y-122958543D01*
X125888582Y-122972403D01*
X125882288Y-122985710D01*
X125874720Y-122998336D01*
X125865952Y-123010159D01*
X125856066Y-123021066D01*
X125845159Y-123030952D01*
X125833336Y-123039720D01*
X125820710Y-123047288D01*
X125807403Y-123053582D01*
X125793543Y-123058541D01*
X125779264Y-123062118D01*
X125764703Y-123064278D01*
X125750000Y-123065000D01*
X124300000Y-123065000D01*
X124285297Y-123064278D01*
X124270736Y-123062118D01*
X124256457Y-123058541D01*
X124242597Y-123053582D01*
X124229290Y-123047288D01*
X124216664Y-123039720D01*
X124204841Y-123030952D01*
X124193934Y-123021066D01*
X124184048Y-123010159D01*
X124175280Y-122998336D01*
X124167712Y-122985710D01*
X124161418Y-122972403D01*
X124156459Y-122958543D01*
X124152882Y-122944264D01*
X124150722Y-122929703D01*
X124150000Y-122915000D01*
X124150000Y-122615000D01*
X124150722Y-122600297D01*
X124152882Y-122585736D01*
X124156459Y-122571457D01*
X124161418Y-122557597D01*
X124167712Y-122544290D01*
X124175280Y-122531664D01*
X124184048Y-122519841D01*
X124193934Y-122508934D01*
X124204841Y-122499048D01*
X124216664Y-122490280D01*
X124229290Y-122482712D01*
X124242597Y-122476418D01*
X124256457Y-122471459D01*
X124270736Y-122467882D01*
X124285297Y-122465722D01*
X124300000Y-122465000D01*
X125750000Y-122465000D01*
X125764703Y-122465722D01*
G37*
G04 #@! TD.AperFunction*
G04 #@! TA.AperFunction,SMDPad,CuDef*
G36*
X125764703Y-121195722D02*
G01*
X125779264Y-121197882D01*
X125793543Y-121201459D01*
X125807403Y-121206418D01*
X125820710Y-121212712D01*
X125833336Y-121220280D01*
X125845159Y-121229048D01*
X125856066Y-121238934D01*
X125865952Y-121249841D01*
X125874720Y-121261664D01*
X125882288Y-121274290D01*
X125888582Y-121287597D01*
X125893541Y-121301457D01*
X125897118Y-121315736D01*
X125899278Y-121330297D01*
X125900000Y-121345000D01*
X125900000Y-121645000D01*
X125899278Y-121659703D01*
X125897118Y-121674264D01*
X125893541Y-121688543D01*
X125888582Y-121702403D01*
X125882288Y-121715710D01*
X125874720Y-121728336D01*
X125865952Y-121740159D01*
X125856066Y-121751066D01*
X125845159Y-121760952D01*
X125833336Y-121769720D01*
X125820710Y-121777288D01*
X125807403Y-121783582D01*
X125793543Y-121788541D01*
X125779264Y-121792118D01*
X125764703Y-121794278D01*
X125750000Y-121795000D01*
X124300000Y-121795000D01*
X124285297Y-121794278D01*
X124270736Y-121792118D01*
X124256457Y-121788541D01*
X124242597Y-121783582D01*
X124229290Y-121777288D01*
X124216664Y-121769720D01*
X124204841Y-121760952D01*
X124193934Y-121751066D01*
X124184048Y-121740159D01*
X124175280Y-121728336D01*
X124167712Y-121715710D01*
X124161418Y-121702403D01*
X124156459Y-121688543D01*
X124152882Y-121674264D01*
X124150722Y-121659703D01*
X124150000Y-121645000D01*
X124150000Y-121345000D01*
X124150722Y-121330297D01*
X124152882Y-121315736D01*
X124156459Y-121301457D01*
X124161418Y-121287597D01*
X124167712Y-121274290D01*
X124175280Y-121261664D01*
X124184048Y-121249841D01*
X124193934Y-121238934D01*
X124204841Y-121229048D01*
X124216664Y-121220280D01*
X124229290Y-121212712D01*
X124242597Y-121206418D01*
X124256457Y-121201459D01*
X124270736Y-121197882D01*
X124285297Y-121195722D01*
X124300000Y-121195000D01*
X125750000Y-121195000D01*
X125764703Y-121195722D01*
G37*
G04 #@! TD.AperFunction*
G04 #@! TA.AperFunction,SMDPad,CuDef*
G36*
X130914703Y-121195722D02*
G01*
X130929264Y-121197882D01*
X130943543Y-121201459D01*
X130957403Y-121206418D01*
X130970710Y-121212712D01*
X130983336Y-121220280D01*
X130995159Y-121229048D01*
X131006066Y-121238934D01*
X131015952Y-121249841D01*
X131024720Y-121261664D01*
X131032288Y-121274290D01*
X131038582Y-121287597D01*
X131043541Y-121301457D01*
X131047118Y-121315736D01*
X131049278Y-121330297D01*
X131050000Y-121345000D01*
X131050000Y-121645000D01*
X131049278Y-121659703D01*
X131047118Y-121674264D01*
X131043541Y-121688543D01*
X131038582Y-121702403D01*
X131032288Y-121715710D01*
X131024720Y-121728336D01*
X131015952Y-121740159D01*
X131006066Y-121751066D01*
X130995159Y-121760952D01*
X130983336Y-121769720D01*
X130970710Y-121777288D01*
X130957403Y-121783582D01*
X130943543Y-121788541D01*
X130929264Y-121792118D01*
X130914703Y-121794278D01*
X130900000Y-121795000D01*
X129450000Y-121795000D01*
X129435297Y-121794278D01*
X129420736Y-121792118D01*
X129406457Y-121788541D01*
X129392597Y-121783582D01*
X129379290Y-121777288D01*
X129366664Y-121769720D01*
X129354841Y-121760952D01*
X129343934Y-121751066D01*
X129334048Y-121740159D01*
X129325280Y-121728336D01*
X129317712Y-121715710D01*
X129311418Y-121702403D01*
X129306459Y-121688543D01*
X129302882Y-121674264D01*
X129300722Y-121659703D01*
X129300000Y-121645000D01*
X129300000Y-121345000D01*
X129300722Y-121330297D01*
X129302882Y-121315736D01*
X129306459Y-121301457D01*
X129311418Y-121287597D01*
X129317712Y-121274290D01*
X129325280Y-121261664D01*
X129334048Y-121249841D01*
X129343934Y-121238934D01*
X129354841Y-121229048D01*
X129366664Y-121220280D01*
X129379290Y-121212712D01*
X129392597Y-121206418D01*
X129406457Y-121201459D01*
X129420736Y-121197882D01*
X129435297Y-121195722D01*
X129450000Y-121195000D01*
X130900000Y-121195000D01*
X130914703Y-121195722D01*
G37*
G04 #@! TD.AperFunction*
G04 #@! TA.AperFunction,SMDPad,CuDef*
G36*
X130914703Y-122465722D02*
G01*
X130929264Y-122467882D01*
X130943543Y-122471459D01*
X130957403Y-122476418D01*
X130970710Y-122482712D01*
X130983336Y-122490280D01*
X130995159Y-122499048D01*
X131006066Y-122508934D01*
X131015952Y-122519841D01*
X131024720Y-122531664D01*
X131032288Y-122544290D01*
X131038582Y-122557597D01*
X131043541Y-122571457D01*
X131047118Y-122585736D01*
X131049278Y-122600297D01*
X131050000Y-122615000D01*
X131050000Y-122915000D01*
X131049278Y-122929703D01*
X131047118Y-122944264D01*
X131043541Y-122958543D01*
X131038582Y-122972403D01*
X131032288Y-122985710D01*
X131024720Y-122998336D01*
X131015952Y-123010159D01*
X131006066Y-123021066D01*
X130995159Y-123030952D01*
X130983336Y-123039720D01*
X130970710Y-123047288D01*
X130957403Y-123053582D01*
X130943543Y-123058541D01*
X130929264Y-123062118D01*
X130914703Y-123064278D01*
X130900000Y-123065000D01*
X129450000Y-123065000D01*
X129435297Y-123064278D01*
X129420736Y-123062118D01*
X129406457Y-123058541D01*
X129392597Y-123053582D01*
X129379290Y-123047288D01*
X129366664Y-123039720D01*
X129354841Y-123030952D01*
X129343934Y-123021066D01*
X129334048Y-123010159D01*
X129325280Y-122998336D01*
X129317712Y-122985710D01*
X129311418Y-122972403D01*
X129306459Y-122958543D01*
X129302882Y-122944264D01*
X129300722Y-122929703D01*
X129300000Y-122915000D01*
X129300000Y-122615000D01*
X129300722Y-122600297D01*
X129302882Y-122585736D01*
X129306459Y-122571457D01*
X129311418Y-122557597D01*
X129317712Y-122544290D01*
X129325280Y-122531664D01*
X129334048Y-122519841D01*
X129343934Y-122508934D01*
X129354841Y-122499048D01*
X129366664Y-122490280D01*
X129379290Y-122482712D01*
X129392597Y-122476418D01*
X129406457Y-122471459D01*
X129420736Y-122467882D01*
X129435297Y-122465722D01*
X129450000Y-122465000D01*
X130900000Y-122465000D01*
X130914703Y-122465722D01*
G37*
G04 #@! TD.AperFunction*
G04 #@! TA.AperFunction,SMDPad,CuDef*
G36*
X130914703Y-123735722D02*
G01*
X130929264Y-123737882D01*
X130943543Y-123741459D01*
X130957403Y-123746418D01*
X130970710Y-123752712D01*
X130983336Y-123760280D01*
X130995159Y-123769048D01*
X131006066Y-123778934D01*
X131015952Y-123789841D01*
X131024720Y-123801664D01*
X131032288Y-123814290D01*
X131038582Y-123827597D01*
X131043541Y-123841457D01*
X131047118Y-123855736D01*
X131049278Y-123870297D01*
X131050000Y-123885000D01*
X131050000Y-124185000D01*
X131049278Y-124199703D01*
X131047118Y-124214264D01*
X131043541Y-124228543D01*
X131038582Y-124242403D01*
X131032288Y-124255710D01*
X131024720Y-124268336D01*
X131015952Y-124280159D01*
X131006066Y-124291066D01*
X130995159Y-124300952D01*
X130983336Y-124309720D01*
X130970710Y-124317288D01*
X130957403Y-124323582D01*
X130943543Y-124328541D01*
X130929264Y-124332118D01*
X130914703Y-124334278D01*
X130900000Y-124335000D01*
X129450000Y-124335000D01*
X129435297Y-124334278D01*
X129420736Y-124332118D01*
X129406457Y-124328541D01*
X129392597Y-124323582D01*
X129379290Y-124317288D01*
X129366664Y-124309720D01*
X129354841Y-124300952D01*
X129343934Y-124291066D01*
X129334048Y-124280159D01*
X129325280Y-124268336D01*
X129317712Y-124255710D01*
X129311418Y-124242403D01*
X129306459Y-124228543D01*
X129302882Y-124214264D01*
X129300722Y-124199703D01*
X129300000Y-124185000D01*
X129300000Y-123885000D01*
X129300722Y-123870297D01*
X129302882Y-123855736D01*
X129306459Y-123841457D01*
X129311418Y-123827597D01*
X129317712Y-123814290D01*
X129325280Y-123801664D01*
X129334048Y-123789841D01*
X129343934Y-123778934D01*
X129354841Y-123769048D01*
X129366664Y-123760280D01*
X129379290Y-123752712D01*
X129392597Y-123746418D01*
X129406457Y-123741459D01*
X129420736Y-123737882D01*
X129435297Y-123735722D01*
X129450000Y-123735000D01*
X130900000Y-123735000D01*
X130914703Y-123735722D01*
G37*
G04 #@! TD.AperFunction*
G04 #@! TA.AperFunction,SMDPad,CuDef*
G36*
X130914703Y-125005722D02*
G01*
X130929264Y-125007882D01*
X130943543Y-125011459D01*
X130957403Y-125016418D01*
X130970710Y-125022712D01*
X130983336Y-125030280D01*
X130995159Y-125039048D01*
X131006066Y-125048934D01*
X131015952Y-125059841D01*
X131024720Y-125071664D01*
X131032288Y-125084290D01*
X131038582Y-125097597D01*
X131043541Y-125111457D01*
X131047118Y-125125736D01*
X131049278Y-125140297D01*
X131050000Y-125155000D01*
X131050000Y-125455000D01*
X131049278Y-125469703D01*
X131047118Y-125484264D01*
X131043541Y-125498543D01*
X131038582Y-125512403D01*
X131032288Y-125525710D01*
X131024720Y-125538336D01*
X131015952Y-125550159D01*
X131006066Y-125561066D01*
X130995159Y-125570952D01*
X130983336Y-125579720D01*
X130970710Y-125587288D01*
X130957403Y-125593582D01*
X130943543Y-125598541D01*
X130929264Y-125602118D01*
X130914703Y-125604278D01*
X130900000Y-125605000D01*
X129450000Y-125605000D01*
X129435297Y-125604278D01*
X129420736Y-125602118D01*
X129406457Y-125598541D01*
X129392597Y-125593582D01*
X129379290Y-125587288D01*
X129366664Y-125579720D01*
X129354841Y-125570952D01*
X129343934Y-125561066D01*
X129334048Y-125550159D01*
X129325280Y-125538336D01*
X129317712Y-125525710D01*
X129311418Y-125512403D01*
X129306459Y-125498543D01*
X129302882Y-125484264D01*
X129300722Y-125469703D01*
X129300000Y-125455000D01*
X129300000Y-125155000D01*
X129300722Y-125140297D01*
X129302882Y-125125736D01*
X129306459Y-125111457D01*
X129311418Y-125097597D01*
X129317712Y-125084290D01*
X129325280Y-125071664D01*
X129334048Y-125059841D01*
X129343934Y-125048934D01*
X129354841Y-125039048D01*
X129366664Y-125030280D01*
X129379290Y-125022712D01*
X129392597Y-125016418D01*
X129406457Y-125011459D01*
X129420736Y-125007882D01*
X129435297Y-125005722D01*
X129450000Y-125005000D01*
X130900000Y-125005000D01*
X130914703Y-125005722D01*
G37*
G04 #@! TD.AperFunction*
D13*
X117775000Y-118175000D03*
D14*
X121585000Y-127325000D03*
X120315000Y-127325000D03*
X119045000Y-127325000D03*
X117775000Y-127325000D03*
X116505000Y-127325000D03*
X115235000Y-127325000D03*
X113965000Y-127325000D03*
D15*
X120200000Y-101780000D03*
X120200000Y-109400000D03*
D10*
X136000000Y-119360000D03*
X136000000Y-116820000D03*
X136000000Y-114280000D03*
X136000000Y-111740000D03*
D11*
X136000000Y-109200000D03*
D15*
X111600000Y-109400000D03*
X111600000Y-101780000D03*
G04 #@! TA.AperFunction,SMDPad,CuDef*
D12*
G36*
X129474505Y-106201204D02*
G01*
X129498773Y-106204804D01*
X129522572Y-106210765D01*
X129545671Y-106219030D01*
X129567850Y-106229520D01*
X129588893Y-106242132D01*
X129608599Y-106256747D01*
X129626777Y-106273223D01*
X129643253Y-106291401D01*
X129657868Y-106311107D01*
X129670480Y-106332150D01*
X129680970Y-106354329D01*
X129689235Y-106377428D01*
X129695196Y-106401227D01*
X129698796Y-106425495D01*
X129700000Y-106449999D01*
X129700000Y-107100001D01*
X129698796Y-107124505D01*
X129695196Y-107148773D01*
X129689235Y-107172572D01*
X129680970Y-107195671D01*
X129670480Y-107217850D01*
X129657868Y-107238893D01*
X129643253Y-107258599D01*
X129626777Y-107276777D01*
X129608599Y-107293253D01*
X129588893Y-107307868D01*
X129567850Y-107320480D01*
X129545671Y-107330970D01*
X129522572Y-107339235D01*
X129498773Y-107345196D01*
X129474505Y-107348796D01*
X129450001Y-107350000D01*
X128549999Y-107350000D01*
X128525495Y-107348796D01*
X128501227Y-107345196D01*
X128477428Y-107339235D01*
X128454329Y-107330970D01*
X128432150Y-107320480D01*
X128411107Y-107307868D01*
X128391401Y-107293253D01*
X128373223Y-107276777D01*
X128356747Y-107258599D01*
X128342132Y-107238893D01*
X128329520Y-107217850D01*
X128319030Y-107195671D01*
X128310765Y-107172572D01*
X128304804Y-107148773D01*
X128301204Y-107124505D01*
X128300000Y-107100001D01*
X128300000Y-106449999D01*
X128301204Y-106425495D01*
X128304804Y-106401227D01*
X128310765Y-106377428D01*
X128319030Y-106354329D01*
X128329520Y-106332150D01*
X128342132Y-106311107D01*
X128356747Y-106291401D01*
X128373223Y-106273223D01*
X128391401Y-106256747D01*
X128411107Y-106242132D01*
X128432150Y-106229520D01*
X128454329Y-106219030D01*
X128477428Y-106210765D01*
X128501227Y-106204804D01*
X128525495Y-106201204D01*
X128549999Y-106200000D01*
X129450001Y-106200000D01*
X129474505Y-106201204D01*
G37*
G04 #@! TD.AperFunction*
G04 #@! TA.AperFunction,SMDPad,CuDef*
G36*
X129474505Y-108251204D02*
G01*
X129498773Y-108254804D01*
X129522572Y-108260765D01*
X129545671Y-108269030D01*
X129567850Y-108279520D01*
X129588893Y-108292132D01*
X129608599Y-108306747D01*
X129626777Y-108323223D01*
X129643253Y-108341401D01*
X129657868Y-108361107D01*
X129670480Y-108382150D01*
X129680970Y-108404329D01*
X129689235Y-108427428D01*
X129695196Y-108451227D01*
X129698796Y-108475495D01*
X129700000Y-108499999D01*
X129700000Y-109150001D01*
X129698796Y-109174505D01*
X129695196Y-109198773D01*
X129689235Y-109222572D01*
X129680970Y-109245671D01*
X129670480Y-109267850D01*
X129657868Y-109288893D01*
X129643253Y-109308599D01*
X129626777Y-109326777D01*
X129608599Y-109343253D01*
X129588893Y-109357868D01*
X129567850Y-109370480D01*
X129545671Y-109380970D01*
X129522572Y-109389235D01*
X129498773Y-109395196D01*
X129474505Y-109398796D01*
X129450001Y-109400000D01*
X128549999Y-109400000D01*
X128525495Y-109398796D01*
X128501227Y-109395196D01*
X128477428Y-109389235D01*
X128454329Y-109380970D01*
X128432150Y-109370480D01*
X128411107Y-109357868D01*
X128391401Y-109343253D01*
X128373223Y-109326777D01*
X128356747Y-109308599D01*
X128342132Y-109288893D01*
X128329520Y-109267850D01*
X128319030Y-109245671D01*
X128310765Y-109222572D01*
X128304804Y-109198773D01*
X128301204Y-109174505D01*
X128300000Y-109150001D01*
X128300000Y-108499999D01*
X128301204Y-108475495D01*
X128304804Y-108451227D01*
X128310765Y-108427428D01*
X128319030Y-108404329D01*
X128329520Y-108382150D01*
X128342132Y-108361107D01*
X128356747Y-108341401D01*
X128373223Y-108323223D01*
X128391401Y-108306747D01*
X128411107Y-108292132D01*
X128432150Y-108279520D01*
X128454329Y-108269030D01*
X128477428Y-108260765D01*
X128501227Y-108254804D01*
X128525495Y-108251204D01*
X128549999Y-108250000D01*
X129450001Y-108250000D01*
X129474505Y-108251204D01*
G37*
G04 #@! TD.AperFunction*
G04 #@! TA.AperFunction,SMDPad,CuDef*
G36*
X131874505Y-106201204D02*
G01*
X131898773Y-106204804D01*
X131922572Y-106210765D01*
X131945671Y-106219030D01*
X131967850Y-106229520D01*
X131988893Y-106242132D01*
X132008599Y-106256747D01*
X132026777Y-106273223D01*
X132043253Y-106291401D01*
X132057868Y-106311107D01*
X132070480Y-106332150D01*
X132080970Y-106354329D01*
X132089235Y-106377428D01*
X132095196Y-106401227D01*
X132098796Y-106425495D01*
X132100000Y-106449999D01*
X132100000Y-107100001D01*
X132098796Y-107124505D01*
X132095196Y-107148773D01*
X132089235Y-107172572D01*
X132080970Y-107195671D01*
X132070480Y-107217850D01*
X132057868Y-107238893D01*
X132043253Y-107258599D01*
X132026777Y-107276777D01*
X132008599Y-107293253D01*
X131988893Y-107307868D01*
X131967850Y-107320480D01*
X131945671Y-107330970D01*
X131922572Y-107339235D01*
X131898773Y-107345196D01*
X131874505Y-107348796D01*
X131850001Y-107350000D01*
X130949999Y-107350000D01*
X130925495Y-107348796D01*
X130901227Y-107345196D01*
X130877428Y-107339235D01*
X130854329Y-107330970D01*
X130832150Y-107320480D01*
X130811107Y-107307868D01*
X130791401Y-107293253D01*
X130773223Y-107276777D01*
X130756747Y-107258599D01*
X130742132Y-107238893D01*
X130729520Y-107217850D01*
X130719030Y-107195671D01*
X130710765Y-107172572D01*
X130704804Y-107148773D01*
X130701204Y-107124505D01*
X130700000Y-107100001D01*
X130700000Y-106449999D01*
X130701204Y-106425495D01*
X130704804Y-106401227D01*
X130710765Y-106377428D01*
X130719030Y-106354329D01*
X130729520Y-106332150D01*
X130742132Y-106311107D01*
X130756747Y-106291401D01*
X130773223Y-106273223D01*
X130791401Y-106256747D01*
X130811107Y-106242132D01*
X130832150Y-106229520D01*
X130854329Y-106219030D01*
X130877428Y-106210765D01*
X130901227Y-106204804D01*
X130925495Y-106201204D01*
X130949999Y-106200000D01*
X131850001Y-106200000D01*
X131874505Y-106201204D01*
G37*
G04 #@! TD.AperFunction*
G04 #@! TA.AperFunction,SMDPad,CuDef*
G36*
X131874505Y-108251204D02*
G01*
X131898773Y-108254804D01*
X131922572Y-108260765D01*
X131945671Y-108269030D01*
X131967850Y-108279520D01*
X131988893Y-108292132D01*
X132008599Y-108306747D01*
X132026777Y-108323223D01*
X132043253Y-108341401D01*
X132057868Y-108361107D01*
X132070480Y-108382150D01*
X132080970Y-108404329D01*
X132089235Y-108427428D01*
X132095196Y-108451227D01*
X132098796Y-108475495D01*
X132100000Y-108499999D01*
X132100000Y-109150001D01*
X132098796Y-109174505D01*
X132095196Y-109198773D01*
X132089235Y-109222572D01*
X132080970Y-109245671D01*
X132070480Y-109267850D01*
X132057868Y-109288893D01*
X132043253Y-109308599D01*
X132026777Y-109326777D01*
X132008599Y-109343253D01*
X131988893Y-109357868D01*
X131967850Y-109370480D01*
X131945671Y-109380970D01*
X131922572Y-109389235D01*
X131898773Y-109395196D01*
X131874505Y-109398796D01*
X131850001Y-109400000D01*
X130949999Y-109400000D01*
X130925495Y-109398796D01*
X130901227Y-109395196D01*
X130877428Y-109389235D01*
X130854329Y-109380970D01*
X130832150Y-109370480D01*
X130811107Y-109357868D01*
X130791401Y-109343253D01*
X130773223Y-109326777D01*
X130756747Y-109308599D01*
X130742132Y-109288893D01*
X130729520Y-109267850D01*
X130719030Y-109245671D01*
X130710765Y-109222572D01*
X130704804Y-109198773D01*
X130701204Y-109174505D01*
X130700000Y-109150001D01*
X130700000Y-108499999D01*
X130701204Y-108475495D01*
X130704804Y-108451227D01*
X130710765Y-108427428D01*
X130719030Y-108404329D01*
X130729520Y-108382150D01*
X130742132Y-108361107D01*
X130756747Y-108341401D01*
X130773223Y-108323223D01*
X130791401Y-108306747D01*
X130811107Y-108292132D01*
X130832150Y-108279520D01*
X130854329Y-108269030D01*
X130877428Y-108260765D01*
X130901227Y-108254804D01*
X130925495Y-108251204D01*
X130949999Y-108250000D01*
X131850001Y-108250000D01*
X131874505Y-108251204D01*
G37*
G04 #@! TD.AperFunction*
G04 #@! TA.AperFunction,SMDPad,CuDef*
G36*
X127674505Y-129251204D02*
G01*
X127698773Y-129254804D01*
X127722572Y-129260765D01*
X127745671Y-129269030D01*
X127767850Y-129279520D01*
X127788893Y-129292132D01*
X127808599Y-129306747D01*
X127826777Y-129323223D01*
X127843253Y-129341401D01*
X127857868Y-129361107D01*
X127870480Y-129382150D01*
X127880970Y-129404329D01*
X127889235Y-129427428D01*
X127895196Y-129451227D01*
X127898796Y-129475495D01*
X127900000Y-129499999D01*
X127900000Y-130150001D01*
X127898796Y-130174505D01*
X127895196Y-130198773D01*
X127889235Y-130222572D01*
X127880970Y-130245671D01*
X127870480Y-130267850D01*
X127857868Y-130288893D01*
X127843253Y-130308599D01*
X127826777Y-130326777D01*
X127808599Y-130343253D01*
X127788893Y-130357868D01*
X127767850Y-130370480D01*
X127745671Y-130380970D01*
X127722572Y-130389235D01*
X127698773Y-130395196D01*
X127674505Y-130398796D01*
X127650001Y-130400000D01*
X126749999Y-130400000D01*
X126725495Y-130398796D01*
X126701227Y-130395196D01*
X126677428Y-130389235D01*
X126654329Y-130380970D01*
X126632150Y-130370480D01*
X126611107Y-130357868D01*
X126591401Y-130343253D01*
X126573223Y-130326777D01*
X126556747Y-130308599D01*
X126542132Y-130288893D01*
X126529520Y-130267850D01*
X126519030Y-130245671D01*
X126510765Y-130222572D01*
X126504804Y-130198773D01*
X126501204Y-130174505D01*
X126500000Y-130150001D01*
X126500000Y-129499999D01*
X126501204Y-129475495D01*
X126504804Y-129451227D01*
X126510765Y-129427428D01*
X126519030Y-129404329D01*
X126529520Y-129382150D01*
X126542132Y-129361107D01*
X126556747Y-129341401D01*
X126573223Y-129323223D01*
X126591401Y-129306747D01*
X126611107Y-129292132D01*
X126632150Y-129279520D01*
X126654329Y-129269030D01*
X126677428Y-129260765D01*
X126701227Y-129254804D01*
X126725495Y-129251204D01*
X126749999Y-129250000D01*
X127650001Y-129250000D01*
X127674505Y-129251204D01*
G37*
G04 #@! TD.AperFunction*
G04 #@! TA.AperFunction,SMDPad,CuDef*
G36*
X127674505Y-127201204D02*
G01*
X127698773Y-127204804D01*
X127722572Y-127210765D01*
X127745671Y-127219030D01*
X127767850Y-127229520D01*
X127788893Y-127242132D01*
X127808599Y-127256747D01*
X127826777Y-127273223D01*
X127843253Y-127291401D01*
X127857868Y-127311107D01*
X127870480Y-127332150D01*
X127880970Y-127354329D01*
X127889235Y-127377428D01*
X127895196Y-127401227D01*
X127898796Y-127425495D01*
X127900000Y-127449999D01*
X127900000Y-128100001D01*
X127898796Y-128124505D01*
X127895196Y-128148773D01*
X127889235Y-128172572D01*
X127880970Y-128195671D01*
X127870480Y-128217850D01*
X127857868Y-128238893D01*
X127843253Y-128258599D01*
X127826777Y-128276777D01*
X127808599Y-128293253D01*
X127788893Y-128307868D01*
X127767850Y-128320480D01*
X127745671Y-128330970D01*
X127722572Y-128339235D01*
X127698773Y-128345196D01*
X127674505Y-128348796D01*
X127650001Y-128350000D01*
X126749999Y-128350000D01*
X126725495Y-128348796D01*
X126701227Y-128345196D01*
X126677428Y-128339235D01*
X126654329Y-128330970D01*
X126632150Y-128320480D01*
X126611107Y-128307868D01*
X126591401Y-128293253D01*
X126573223Y-128276777D01*
X126556747Y-128258599D01*
X126542132Y-128238893D01*
X126529520Y-128217850D01*
X126519030Y-128195671D01*
X126510765Y-128172572D01*
X126504804Y-128148773D01*
X126501204Y-128124505D01*
X126500000Y-128100001D01*
X126500000Y-127449999D01*
X126501204Y-127425495D01*
X126504804Y-127401227D01*
X126510765Y-127377428D01*
X126519030Y-127354329D01*
X126529520Y-127332150D01*
X126542132Y-127311107D01*
X126556747Y-127291401D01*
X126573223Y-127273223D01*
X126591401Y-127256747D01*
X126611107Y-127242132D01*
X126632150Y-127229520D01*
X126654329Y-127219030D01*
X126677428Y-127210765D01*
X126701227Y-127204804D01*
X126725495Y-127201204D01*
X126749999Y-127200000D01*
X127650001Y-127200000D01*
X127674505Y-127201204D01*
G37*
G04 #@! TD.AperFunction*
G04 #@! TA.AperFunction,SMDPad,CuDef*
G36*
X130074505Y-129251204D02*
G01*
X130098773Y-129254804D01*
X130122572Y-129260765D01*
X130145671Y-129269030D01*
X130167850Y-129279520D01*
X130188893Y-129292132D01*
X130208599Y-129306747D01*
X130226777Y-129323223D01*
X130243253Y-129341401D01*
X130257868Y-129361107D01*
X130270480Y-129382150D01*
X130280970Y-129404329D01*
X130289235Y-129427428D01*
X130295196Y-129451227D01*
X130298796Y-129475495D01*
X130300000Y-129499999D01*
X130300000Y-130150001D01*
X130298796Y-130174505D01*
X130295196Y-130198773D01*
X130289235Y-130222572D01*
X130280970Y-130245671D01*
X130270480Y-130267850D01*
X130257868Y-130288893D01*
X130243253Y-130308599D01*
X130226777Y-130326777D01*
X130208599Y-130343253D01*
X130188893Y-130357868D01*
X130167850Y-130370480D01*
X130145671Y-130380970D01*
X130122572Y-130389235D01*
X130098773Y-130395196D01*
X130074505Y-130398796D01*
X130050001Y-130400000D01*
X129149999Y-130400000D01*
X129125495Y-130398796D01*
X129101227Y-130395196D01*
X129077428Y-130389235D01*
X129054329Y-130380970D01*
X129032150Y-130370480D01*
X129011107Y-130357868D01*
X128991401Y-130343253D01*
X128973223Y-130326777D01*
X128956747Y-130308599D01*
X128942132Y-130288893D01*
X128929520Y-130267850D01*
X128919030Y-130245671D01*
X128910765Y-130222572D01*
X128904804Y-130198773D01*
X128901204Y-130174505D01*
X128900000Y-130150001D01*
X128900000Y-129499999D01*
X128901204Y-129475495D01*
X128904804Y-129451227D01*
X128910765Y-129427428D01*
X128919030Y-129404329D01*
X128929520Y-129382150D01*
X128942132Y-129361107D01*
X128956747Y-129341401D01*
X128973223Y-129323223D01*
X128991401Y-129306747D01*
X129011107Y-129292132D01*
X129032150Y-129279520D01*
X129054329Y-129269030D01*
X129077428Y-129260765D01*
X129101227Y-129254804D01*
X129125495Y-129251204D01*
X129149999Y-129250000D01*
X130050001Y-129250000D01*
X130074505Y-129251204D01*
G37*
G04 #@! TD.AperFunction*
G04 #@! TA.AperFunction,SMDPad,CuDef*
G36*
X130074505Y-127201204D02*
G01*
X130098773Y-127204804D01*
X130122572Y-127210765D01*
X130145671Y-127219030D01*
X130167850Y-127229520D01*
X130188893Y-127242132D01*
X130208599Y-127256747D01*
X130226777Y-127273223D01*
X130243253Y-127291401D01*
X130257868Y-127311107D01*
X130270480Y-127332150D01*
X130280970Y-127354329D01*
X130289235Y-127377428D01*
X130295196Y-127401227D01*
X130298796Y-127425495D01*
X130300000Y-127449999D01*
X130300000Y-128100001D01*
X130298796Y-128124505D01*
X130295196Y-128148773D01*
X130289235Y-128172572D01*
X130280970Y-128195671D01*
X130270480Y-128217850D01*
X130257868Y-128238893D01*
X130243253Y-128258599D01*
X130226777Y-128276777D01*
X130208599Y-128293253D01*
X130188893Y-128307868D01*
X130167850Y-128320480D01*
X130145671Y-128330970D01*
X130122572Y-128339235D01*
X130098773Y-128345196D01*
X130074505Y-128348796D01*
X130050001Y-128350000D01*
X129149999Y-128350000D01*
X129125495Y-128348796D01*
X129101227Y-128345196D01*
X129077428Y-128339235D01*
X129054329Y-128330970D01*
X129032150Y-128320480D01*
X129011107Y-128307868D01*
X128991401Y-128293253D01*
X128973223Y-128276777D01*
X128956747Y-128258599D01*
X128942132Y-128238893D01*
X128929520Y-128217850D01*
X128919030Y-128195671D01*
X128910765Y-128172572D01*
X128904804Y-128148773D01*
X128901204Y-128124505D01*
X128900000Y-128100001D01*
X128900000Y-127449999D01*
X128901204Y-127425495D01*
X128904804Y-127401227D01*
X128910765Y-127377428D01*
X128919030Y-127354329D01*
X128929520Y-127332150D01*
X128942132Y-127311107D01*
X128956747Y-127291401D01*
X128973223Y-127273223D01*
X128991401Y-127256747D01*
X129011107Y-127242132D01*
X129032150Y-127229520D01*
X129054329Y-127219030D01*
X129077428Y-127210765D01*
X129101227Y-127204804D01*
X129125495Y-127201204D01*
X129149999Y-127200000D01*
X130050001Y-127200000D01*
X130074505Y-127201204D01*
G37*
G04 #@! TD.AperFunction*
D16*
X109600000Y-119060000D03*
X109600000Y-121600000D03*
X109600000Y-113980000D03*
X109600000Y-116520000D03*
X116400000Y-131400000D03*
X118940000Y-131400000D03*
X121480000Y-131400000D03*
X124020000Y-131400000D03*
X134000000Y-99800000D03*
X128400000Y-103600000D03*
X129400000Y-118000000D03*
D17*
X127200000Y-127200000D02*
X127200000Y-127775000D01*
X127200000Y-124017786D02*
X127200000Y-127200000D01*
X125947214Y-122765000D02*
X127200000Y-124017786D01*
X125025000Y-122765000D02*
X125947214Y-122765000D01*
X125900000Y-122765000D02*
X125025000Y-122765000D01*
X125947214Y-122765000D02*
X125900000Y-122765000D01*
X126881410Y-110559196D02*
X126881410Y-121830804D01*
X124200000Y-107877786D02*
X126881410Y-110559196D01*
X124200000Y-102030000D02*
X124200000Y-107877786D01*
X126881410Y-121830804D02*
X125947214Y-122765000D01*
X123950000Y-101780000D02*
X124200000Y-102030000D01*
X120200000Y-101780000D02*
X123950000Y-101780000D01*
D18*
X129600000Y-127775000D02*
X127200000Y-127775000D01*
D17*
X113965000Y-124275000D02*
X113965000Y-127325000D01*
X114205000Y-124035000D02*
X113965000Y-124275000D01*
X125025000Y-124035000D02*
X114205000Y-124035000D01*
X131400000Y-108825000D02*
X129000000Y-108825000D01*
X130075000Y-110150000D02*
X131400000Y-108825000D01*
X130075000Y-111095000D02*
X130075000Y-110150000D01*
D18*
X131775000Y-109200000D02*
X131400000Y-108825000D01*
X134315000Y-111740000D02*
X136000000Y-111740000D01*
X131400000Y-108825000D02*
X134315000Y-111740000D01*
X128825000Y-108825000D02*
X129000000Y-108825000D01*
X120120000Y-95320000D02*
X120120000Y-91800000D01*
X122240000Y-95320000D02*
X120120000Y-95320000D01*
X126600000Y-99680000D02*
X122240000Y-95320000D01*
X128300000Y-108825000D02*
X126600000Y-107125000D01*
X126600000Y-107125000D02*
X126600000Y-99680000D01*
X129000000Y-108825000D02*
X128300000Y-108825000D01*
X131273990Y-124035000D02*
X132600000Y-122708990D01*
X130175000Y-124035000D02*
X131273990Y-124035000D01*
X132600000Y-122708990D02*
X132600000Y-118000000D01*
X133780000Y-116820000D02*
X136000000Y-116820000D01*
X132600000Y-118000000D02*
X133780000Y-116820000D01*
X136000000Y-114280000D02*
X133280000Y-114280000D01*
X131285400Y-112376410D02*
X130075000Y-112376410D01*
X131708990Y-112800000D02*
X131285400Y-112376410D01*
X131800000Y-112800000D02*
X131708990Y-112800000D01*
X133280000Y-114280000D02*
X131800000Y-112800000D01*
X133400000Y-108600000D02*
X134000000Y-109200000D01*
X134000000Y-109200000D02*
X136000000Y-109200000D01*
X122660000Y-93460000D02*
X133400000Y-104200000D01*
X133400000Y-104200000D02*
X133400000Y-108600000D01*
X122660000Y-91800000D02*
X122660000Y-93460000D01*
D19*
G36*
X123073000Y-104673000D02*
G01*
X108727000Y-104673000D01*
X108727000Y-98927000D01*
X123073000Y-98927000D01*
X123073000Y-104673000D01*
G37*
X123073000Y-104673000D02*
X108727000Y-104673000D01*
X108727000Y-98927000D01*
X123073000Y-98927000D01*
X123073000Y-104673000D01*
G36*
X123190001Y-106729054D02*
G01*
X123190001Y-107828168D01*
X123185114Y-107877786D01*
X123204615Y-108075780D01*
X123262368Y-108266165D01*
X123262369Y-108266166D01*
X123356154Y-108441626D01*
X123482368Y-108595419D01*
X123520901Y-108627042D01*
X123650909Y-108757050D01*
X124076158Y-110628146D01*
X124084029Y-110651765D01*
X124096356Y-110673396D01*
X124112666Y-110692205D01*
X124132333Y-110707472D01*
X124154600Y-110718608D01*
X124178611Y-110725186D01*
X124200000Y-110727000D01*
X125620859Y-110727000D01*
X125871410Y-110977551D01*
X125871410Y-112465666D01*
X117327000Y-112275791D01*
X117327000Y-106327000D01*
X123098625Y-106327000D01*
X123190001Y-106729054D01*
G37*
X123190001Y-106729054D02*
X123190001Y-107828168D01*
X123185114Y-107877786D01*
X123204615Y-108075780D01*
X123262368Y-108266165D01*
X123262369Y-108266166D01*
X123356154Y-108441626D01*
X123482368Y-108595419D01*
X123520901Y-108627042D01*
X123650909Y-108757050D01*
X124076158Y-110628146D01*
X124084029Y-110651765D01*
X124096356Y-110673396D01*
X124112666Y-110692205D01*
X124132333Y-110707472D01*
X124154600Y-110718608D01*
X124178611Y-110725186D01*
X124200000Y-110727000D01*
X125620859Y-110727000D01*
X125871410Y-110977551D01*
X125871410Y-112465666D01*
X117327000Y-112275791D01*
X117327000Y-106327000D01*
X123098625Y-106327000D01*
X123190001Y-106729054D01*
G36*
X125871410Y-115273000D02*
G01*
X124000000Y-115273000D01*
X123975224Y-115275440D01*
X123951399Y-115282667D01*
X123929443Y-115294403D01*
X123910197Y-115310197D01*
X123894403Y-115329443D01*
X123882667Y-115351399D01*
X123873736Y-115386350D01*
X123085990Y-122673000D01*
X112527000Y-122673000D01*
X112527000Y-113527000D01*
X123200000Y-113527000D01*
X123224907Y-113524534D01*
X124212577Y-113327000D01*
X125871410Y-113327000D01*
X125871410Y-115273000D01*
G37*
X125871410Y-115273000D02*
X124000000Y-115273000D01*
X123975224Y-115275440D01*
X123951399Y-115282667D01*
X123929443Y-115294403D01*
X123910197Y-115310197D01*
X123894403Y-115329443D01*
X123882667Y-115351399D01*
X123873736Y-115386350D01*
X123085990Y-122673000D01*
X112527000Y-122673000D01*
X112527000Y-113527000D01*
X123200000Y-113527000D01*
X123224907Y-113524534D01*
X124212577Y-113327000D01*
X125871410Y-113327000D01*
X125871410Y-115273000D01*
G36*
X108356996Y-105386664D02*
G01*
X108476118Y-105422799D01*
X108600000Y-105435000D01*
X114673000Y-105435000D01*
X114673000Y-112765000D01*
X112400000Y-112765000D01*
X112276118Y-112777201D01*
X112156996Y-112813336D01*
X112047213Y-112872017D01*
X111950987Y-112950987D01*
X111872017Y-113047213D01*
X111813336Y-113156996D01*
X111798085Y-113207271D01*
X111785498Y-113230820D01*
X111749188Y-113350518D01*
X111736928Y-113475000D01*
X111736928Y-122875000D01*
X111749188Y-122999482D01*
X111785498Y-123119180D01*
X111844463Y-123229494D01*
X111923815Y-123326185D01*
X112020506Y-123405537D01*
X112130820Y-123464502D01*
X112250518Y-123500812D01*
X112375000Y-123513072D01*
X113298573Y-123513072D01*
X113285907Y-123525738D01*
X113247367Y-123557367D01*
X113121153Y-123711160D01*
X113084419Y-123779886D01*
X113027368Y-123886621D01*
X112969615Y-124077006D01*
X112950114Y-124275000D01*
X112955000Y-124324608D01*
X112955000Y-124848392D01*
X112939188Y-124900518D01*
X112926928Y-125025000D01*
X112926928Y-129625000D01*
X112939188Y-129749482D01*
X112975498Y-129869180D01*
X113034463Y-129979494D01*
X113113815Y-130076185D01*
X113210506Y-130155537D01*
X113320820Y-130214502D01*
X113440518Y-130250812D01*
X113565000Y-130263072D01*
X114365000Y-130263072D01*
X114489482Y-130250812D01*
X114609180Y-130214502D01*
X114719494Y-130155537D01*
X114816185Y-130076185D01*
X114895537Y-129979494D01*
X114954502Y-129869180D01*
X114990812Y-129749482D01*
X115003072Y-129625000D01*
X115003072Y-125045000D01*
X125074608Y-125045000D01*
X125222994Y-125030385D01*
X125411930Y-124973072D01*
X125750000Y-124973072D01*
X125903745Y-124957929D01*
X126051582Y-124913084D01*
X126187829Y-124840258D01*
X126190000Y-124838476D01*
X126190001Y-126766262D01*
X126122038Y-126822038D01*
X126011595Y-126956613D01*
X125929528Y-127110149D01*
X125878992Y-127276745D01*
X125861928Y-127449999D01*
X125861928Y-128100001D01*
X125878992Y-128273255D01*
X125929528Y-128439851D01*
X126011595Y-128593387D01*
X126122038Y-128727962D01*
X126256613Y-128838405D01*
X126410149Y-128920472D01*
X126576745Y-128971008D01*
X126749999Y-128988072D01*
X127650001Y-128988072D01*
X127823255Y-128971008D01*
X127989851Y-128920472D01*
X128009443Y-128910000D01*
X128790557Y-128910000D01*
X128810149Y-128920472D01*
X128976745Y-128971008D01*
X129149999Y-128988072D01*
X130050001Y-128988072D01*
X130223255Y-128971008D01*
X130389851Y-128920472D01*
X130543387Y-128838405D01*
X130677962Y-128727962D01*
X130788405Y-128593387D01*
X130870472Y-128439851D01*
X130921008Y-128273255D01*
X130938072Y-128100001D01*
X130938072Y-127449999D01*
X130921008Y-127276745D01*
X130870472Y-127110149D01*
X130788405Y-126956613D01*
X130677962Y-126822038D01*
X130543387Y-126711595D01*
X130389851Y-126629528D01*
X130223255Y-126578992D01*
X130050001Y-126561928D01*
X129149999Y-126561928D01*
X128976745Y-126578992D01*
X128810149Y-126629528D01*
X128790557Y-126640000D01*
X128210000Y-126640000D01*
X128210000Y-124067394D01*
X128214886Y-124017786D01*
X128195385Y-123819791D01*
X128137632Y-123629406D01*
X128099126Y-123557367D01*
X128043847Y-123453946D01*
X127917633Y-123300153D01*
X127879099Y-123268529D01*
X127375570Y-122765000D01*
X127560509Y-122580061D01*
X127599043Y-122548437D01*
X127725257Y-122394644D01*
X127819042Y-122219184D01*
X127876795Y-122028798D01*
X127891410Y-121880412D01*
X127896296Y-121830804D01*
X127891410Y-121781196D01*
X127891410Y-114327000D01*
X128600000Y-114327000D01*
X128618196Y-114325690D01*
X128642367Y-114319725D01*
X128664910Y-114309159D01*
X128665335Y-114308846D01*
X128692749Y-114342251D01*
X128812171Y-114440258D01*
X128948418Y-114513084D01*
X129096255Y-114557929D01*
X129250000Y-114573072D01*
X130900000Y-114573072D01*
X131053745Y-114557929D01*
X131201582Y-114513084D01*
X131277059Y-114472740D01*
X131473219Y-117807458D01*
X131475440Y-117824776D01*
X131476442Y-117828078D01*
X131459509Y-118000000D01*
X131465001Y-118055761D01*
X131465000Y-122238858D01*
X130803859Y-122900000D01*
X130119248Y-122900000D01*
X129952501Y-122916423D01*
X129738553Y-122981324D01*
X129541377Y-123086716D01*
X129528934Y-123096928D01*
X129450000Y-123096928D01*
X129296255Y-123112071D01*
X129148418Y-123156916D01*
X129012171Y-123229742D01*
X128892749Y-123327749D01*
X128794742Y-123447171D01*
X128721916Y-123583418D01*
X128677071Y-123731255D01*
X128661928Y-123885000D01*
X128661928Y-124185000D01*
X128677071Y-124338745D01*
X128721916Y-124486582D01*
X128794742Y-124622829D01*
X128833454Y-124670000D01*
X128794742Y-124717171D01*
X128721916Y-124853418D01*
X128677071Y-125001255D01*
X128661928Y-125155000D01*
X128661928Y-125455000D01*
X128677071Y-125608745D01*
X128721916Y-125756582D01*
X128794742Y-125892829D01*
X128892749Y-126012251D01*
X129012171Y-126110258D01*
X129148418Y-126183084D01*
X129296255Y-126227929D01*
X129450000Y-126243072D01*
X130900000Y-126243072D01*
X131053745Y-126227929D01*
X131201582Y-126183084D01*
X131337829Y-126110258D01*
X131457251Y-126012251D01*
X131555258Y-125892829D01*
X131628084Y-125756582D01*
X131672929Y-125608745D01*
X131688072Y-125455000D01*
X131688072Y-125155000D01*
X131682378Y-125097188D01*
X131710437Y-125088676D01*
X131907613Y-124983284D01*
X132080439Y-124841449D01*
X132115986Y-124798135D01*
X133363140Y-123550982D01*
X133406449Y-123515439D01*
X133548284Y-123342613D01*
X133653676Y-123145437D01*
X133718577Y-122931489D01*
X133735000Y-122764742D01*
X133735000Y-122764733D01*
X133740490Y-122708991D01*
X133735000Y-122653249D01*
X133735000Y-118470131D01*
X134250132Y-117955000D01*
X135034893Y-117955000D01*
X135053368Y-117973475D01*
X135296589Y-118135990D01*
X135566842Y-118247932D01*
X135853740Y-118305000D01*
X136146260Y-118305000D01*
X136433158Y-118247932D01*
X136703411Y-118135990D01*
X136915001Y-117994610D01*
X136915001Y-133433647D01*
X136924289Y-133527950D01*
X136911375Y-133659660D01*
X136835965Y-133909429D01*
X136713477Y-134139794D01*
X136548579Y-134341979D01*
X136347546Y-134508288D01*
X136118046Y-134632378D01*
X135868805Y-134709531D01*
X135728181Y-134724311D01*
X135633647Y-134715000D01*
X109566353Y-134715000D01*
X109472045Y-134724289D01*
X109340340Y-134711375D01*
X109090571Y-134635965D01*
X108860206Y-134513477D01*
X108658021Y-134348579D01*
X108491712Y-134147546D01*
X108367622Y-133918046D01*
X108290469Y-133668805D01*
X108275689Y-133528181D01*
X108285000Y-133433647D01*
X108285000Y-131579872D01*
X108965000Y-131579872D01*
X108965000Y-132020128D01*
X109050890Y-132451925D01*
X109219369Y-132858669D01*
X109463962Y-133224729D01*
X109775271Y-133536038D01*
X110141331Y-133780631D01*
X110548075Y-133949110D01*
X110979872Y-134035000D01*
X111420128Y-134035000D01*
X111851925Y-133949110D01*
X112258669Y-133780631D01*
X112624729Y-133536038D01*
X112936038Y-133224729D01*
X113180631Y-132858669D01*
X113349110Y-132451925D01*
X113435000Y-132020128D01*
X113435000Y-131579872D01*
X131765000Y-131579872D01*
X131765000Y-132020128D01*
X131850890Y-132451925D01*
X132019369Y-132858669D01*
X132263962Y-133224729D01*
X132575271Y-133536038D01*
X132941331Y-133780631D01*
X133348075Y-133949110D01*
X133779872Y-134035000D01*
X134220128Y-134035000D01*
X134651925Y-133949110D01*
X135058669Y-133780631D01*
X135424729Y-133536038D01*
X135736038Y-133224729D01*
X135980631Y-132858669D01*
X136149110Y-132451925D01*
X136235000Y-132020128D01*
X136235000Y-131579872D01*
X136149110Y-131148075D01*
X135980631Y-130741331D01*
X135736038Y-130375271D01*
X135424729Y-130063962D01*
X135058669Y-129819369D01*
X134651925Y-129650890D01*
X134220128Y-129565000D01*
X133779872Y-129565000D01*
X133348075Y-129650890D01*
X132941331Y-129819369D01*
X132575271Y-130063962D01*
X132263962Y-130375271D01*
X132019369Y-130741331D01*
X131850890Y-131148075D01*
X131765000Y-131579872D01*
X113435000Y-131579872D01*
X113349110Y-131148075D01*
X113180631Y-130741331D01*
X112936038Y-130375271D01*
X112624729Y-130063962D01*
X112258669Y-129819369D01*
X111851925Y-129650890D01*
X111420128Y-129565000D01*
X110979872Y-129565000D01*
X110548075Y-129650890D01*
X110141331Y-129819369D01*
X109775271Y-130063962D01*
X109463962Y-130375271D01*
X109219369Y-130741331D01*
X109050890Y-131148075D01*
X108965000Y-131579872D01*
X108285000Y-131579872D01*
X108285000Y-105348181D01*
X108356996Y-105386664D01*
G37*
X108356996Y-105386664D02*
X108476118Y-105422799D01*
X108600000Y-105435000D01*
X114673000Y-105435000D01*
X114673000Y-112765000D01*
X112400000Y-112765000D01*
X112276118Y-112777201D01*
X112156996Y-112813336D01*
X112047213Y-112872017D01*
X111950987Y-112950987D01*
X111872017Y-113047213D01*
X111813336Y-113156996D01*
X111798085Y-113207271D01*
X111785498Y-113230820D01*
X111749188Y-113350518D01*
X111736928Y-113475000D01*
X111736928Y-122875000D01*
X111749188Y-122999482D01*
X111785498Y-123119180D01*
X111844463Y-123229494D01*
X111923815Y-123326185D01*
X112020506Y-123405537D01*
X112130820Y-123464502D01*
X112250518Y-123500812D01*
X112375000Y-123513072D01*
X113298573Y-123513072D01*
X113285907Y-123525738D01*
X113247367Y-123557367D01*
X113121153Y-123711160D01*
X113084419Y-123779886D01*
X113027368Y-123886621D01*
X112969615Y-124077006D01*
X112950114Y-124275000D01*
X112955000Y-124324608D01*
X112955000Y-124848392D01*
X112939188Y-124900518D01*
X112926928Y-125025000D01*
X112926928Y-129625000D01*
X112939188Y-129749482D01*
X112975498Y-129869180D01*
X113034463Y-129979494D01*
X113113815Y-130076185D01*
X113210506Y-130155537D01*
X113320820Y-130214502D01*
X113440518Y-130250812D01*
X113565000Y-130263072D01*
X114365000Y-130263072D01*
X114489482Y-130250812D01*
X114609180Y-130214502D01*
X114719494Y-130155537D01*
X114816185Y-130076185D01*
X114895537Y-129979494D01*
X114954502Y-129869180D01*
X114990812Y-129749482D01*
X115003072Y-129625000D01*
X115003072Y-125045000D01*
X125074608Y-125045000D01*
X125222994Y-125030385D01*
X125411930Y-124973072D01*
X125750000Y-124973072D01*
X125903745Y-124957929D01*
X126051582Y-124913084D01*
X126187829Y-124840258D01*
X126190000Y-124838476D01*
X126190001Y-126766262D01*
X126122038Y-126822038D01*
X126011595Y-126956613D01*
X125929528Y-127110149D01*
X125878992Y-127276745D01*
X125861928Y-127449999D01*
X125861928Y-128100001D01*
X125878992Y-128273255D01*
X125929528Y-128439851D01*
X126011595Y-128593387D01*
X126122038Y-128727962D01*
X126256613Y-128838405D01*
X126410149Y-128920472D01*
X126576745Y-128971008D01*
X126749999Y-128988072D01*
X127650001Y-128988072D01*
X127823255Y-128971008D01*
X127989851Y-128920472D01*
X128009443Y-128910000D01*
X128790557Y-128910000D01*
X128810149Y-128920472D01*
X128976745Y-128971008D01*
X129149999Y-128988072D01*
X130050001Y-128988072D01*
X130223255Y-128971008D01*
X130389851Y-128920472D01*
X130543387Y-128838405D01*
X130677962Y-128727962D01*
X130788405Y-128593387D01*
X130870472Y-128439851D01*
X130921008Y-128273255D01*
X130938072Y-128100001D01*
X130938072Y-127449999D01*
X130921008Y-127276745D01*
X130870472Y-127110149D01*
X130788405Y-126956613D01*
X130677962Y-126822038D01*
X130543387Y-126711595D01*
X130389851Y-126629528D01*
X130223255Y-126578992D01*
X130050001Y-126561928D01*
X129149999Y-126561928D01*
X128976745Y-126578992D01*
X128810149Y-126629528D01*
X128790557Y-126640000D01*
X128210000Y-126640000D01*
X128210000Y-124067394D01*
X128214886Y-124017786D01*
X128195385Y-123819791D01*
X128137632Y-123629406D01*
X128099126Y-123557367D01*
X128043847Y-123453946D01*
X127917633Y-123300153D01*
X127879099Y-123268529D01*
X127375570Y-122765000D01*
X127560509Y-122580061D01*
X127599043Y-122548437D01*
X127725257Y-122394644D01*
X127819042Y-122219184D01*
X127876795Y-122028798D01*
X127891410Y-121880412D01*
X127896296Y-121830804D01*
X127891410Y-121781196D01*
X127891410Y-114327000D01*
X128600000Y-114327000D01*
X128618196Y-114325690D01*
X128642367Y-114319725D01*
X128664910Y-114309159D01*
X128665335Y-114308846D01*
X128692749Y-114342251D01*
X128812171Y-114440258D01*
X128948418Y-114513084D01*
X129096255Y-114557929D01*
X129250000Y-114573072D01*
X130900000Y-114573072D01*
X131053745Y-114557929D01*
X131201582Y-114513084D01*
X131277059Y-114472740D01*
X131473219Y-117807458D01*
X131475440Y-117824776D01*
X131476442Y-117828078D01*
X131459509Y-118000000D01*
X131465001Y-118055761D01*
X131465000Y-122238858D01*
X130803859Y-122900000D01*
X130119248Y-122900000D01*
X129952501Y-122916423D01*
X129738553Y-122981324D01*
X129541377Y-123086716D01*
X129528934Y-123096928D01*
X129450000Y-123096928D01*
X129296255Y-123112071D01*
X129148418Y-123156916D01*
X129012171Y-123229742D01*
X128892749Y-123327749D01*
X128794742Y-123447171D01*
X128721916Y-123583418D01*
X128677071Y-123731255D01*
X128661928Y-123885000D01*
X128661928Y-124185000D01*
X128677071Y-124338745D01*
X128721916Y-124486582D01*
X128794742Y-124622829D01*
X128833454Y-124670000D01*
X128794742Y-124717171D01*
X128721916Y-124853418D01*
X128677071Y-125001255D01*
X128661928Y-125155000D01*
X128661928Y-125455000D01*
X128677071Y-125608745D01*
X128721916Y-125756582D01*
X128794742Y-125892829D01*
X128892749Y-126012251D01*
X129012171Y-126110258D01*
X129148418Y-126183084D01*
X129296255Y-126227929D01*
X129450000Y-126243072D01*
X130900000Y-126243072D01*
X131053745Y-126227929D01*
X131201582Y-126183084D01*
X131337829Y-126110258D01*
X131457251Y-126012251D01*
X131555258Y-125892829D01*
X131628084Y-125756582D01*
X131672929Y-125608745D01*
X131688072Y-125455000D01*
X131688072Y-125155000D01*
X131682378Y-125097188D01*
X131710437Y-125088676D01*
X131907613Y-124983284D01*
X132080439Y-124841449D01*
X132115986Y-124798135D01*
X133363140Y-123550982D01*
X133406449Y-123515439D01*
X133548284Y-123342613D01*
X133653676Y-123145437D01*
X133718577Y-122931489D01*
X133735000Y-122764742D01*
X133735000Y-122764733D01*
X133740490Y-122708991D01*
X133735000Y-122653249D01*
X133735000Y-118470131D01*
X134250132Y-117955000D01*
X135034893Y-117955000D01*
X135053368Y-117973475D01*
X135296589Y-118135990D01*
X135566842Y-118247932D01*
X135853740Y-118305000D01*
X136146260Y-118305000D01*
X136433158Y-118247932D01*
X136703411Y-118135990D01*
X136915001Y-117994610D01*
X136915001Y-133433647D01*
X136924289Y-133527950D01*
X136911375Y-133659660D01*
X136835965Y-133909429D01*
X136713477Y-134139794D01*
X136548579Y-134341979D01*
X136347546Y-134508288D01*
X136118046Y-134632378D01*
X135868805Y-134709531D01*
X135728181Y-134724311D01*
X135633647Y-134715000D01*
X109566353Y-134715000D01*
X109472045Y-134724289D01*
X109340340Y-134711375D01*
X109090571Y-134635965D01*
X108860206Y-134513477D01*
X108658021Y-134348579D01*
X108491712Y-134147546D01*
X108367622Y-133918046D01*
X108290469Y-133668805D01*
X108275689Y-133528181D01*
X108285000Y-133433647D01*
X108285000Y-131579872D01*
X108965000Y-131579872D01*
X108965000Y-132020128D01*
X109050890Y-132451925D01*
X109219369Y-132858669D01*
X109463962Y-133224729D01*
X109775271Y-133536038D01*
X110141331Y-133780631D01*
X110548075Y-133949110D01*
X110979872Y-134035000D01*
X111420128Y-134035000D01*
X111851925Y-133949110D01*
X112258669Y-133780631D01*
X112624729Y-133536038D01*
X112936038Y-133224729D01*
X113180631Y-132858669D01*
X113349110Y-132451925D01*
X113435000Y-132020128D01*
X113435000Y-131579872D01*
X131765000Y-131579872D01*
X131765000Y-132020128D01*
X131850890Y-132451925D01*
X132019369Y-132858669D01*
X132263962Y-133224729D01*
X132575271Y-133536038D01*
X132941331Y-133780631D01*
X133348075Y-133949110D01*
X133779872Y-134035000D01*
X134220128Y-134035000D01*
X134651925Y-133949110D01*
X135058669Y-133780631D01*
X135424729Y-133536038D01*
X135736038Y-133224729D01*
X135980631Y-132858669D01*
X136149110Y-132451925D01*
X136235000Y-132020128D01*
X136235000Y-131579872D01*
X136149110Y-131148075D01*
X135980631Y-130741331D01*
X135736038Y-130375271D01*
X135424729Y-130063962D01*
X135058669Y-129819369D01*
X134651925Y-129650890D01*
X134220128Y-129565000D01*
X133779872Y-129565000D01*
X133348075Y-129650890D01*
X132941331Y-129819369D01*
X132575271Y-130063962D01*
X132263962Y-130375271D01*
X132019369Y-130741331D01*
X131850890Y-131148075D01*
X131765000Y-131579872D01*
X113435000Y-131579872D01*
X113349110Y-131148075D01*
X113180631Y-130741331D01*
X112936038Y-130375271D01*
X112624729Y-130063962D01*
X112258669Y-129819369D01*
X111851925Y-129650890D01*
X111420128Y-129565000D01*
X110979872Y-129565000D01*
X110548075Y-129650890D01*
X110141331Y-129819369D01*
X109775271Y-130063962D01*
X109463962Y-130375271D01*
X109219369Y-130741331D01*
X109050890Y-131148075D01*
X108965000Y-131579872D01*
X108285000Y-131579872D01*
X108285000Y-105348181D01*
X108356996Y-105386664D01*
G36*
X135859659Y-91088625D02*
G01*
X136109429Y-91164035D01*
X136339792Y-91286522D01*
X136541980Y-91451422D01*
X136708286Y-91652450D01*
X136832378Y-91881954D01*
X136909531Y-92131195D01*
X136924311Y-92271819D01*
X136915000Y-92366354D01*
X136915000Y-107718330D01*
X136850000Y-107711928D01*
X135150000Y-107711928D01*
X135025518Y-107724188D01*
X134905820Y-107760498D01*
X134795506Y-107819463D01*
X134698815Y-107898815D01*
X134619463Y-107995506D01*
X134582317Y-108065000D01*
X134535000Y-108065000D01*
X134535000Y-104255752D01*
X134540491Y-104200000D01*
X134518577Y-103977501D01*
X134453676Y-103763553D01*
X134348284Y-103566377D01*
X134241989Y-103436856D01*
X134241987Y-103436854D01*
X134206449Y-103393551D01*
X134163146Y-103358013D01*
X124585004Y-93779872D01*
X131765000Y-93779872D01*
X131765000Y-94220128D01*
X131850890Y-94651925D01*
X132019369Y-95058669D01*
X132263962Y-95424729D01*
X132575271Y-95736038D01*
X132941331Y-95980631D01*
X133348075Y-96149110D01*
X133779872Y-96235000D01*
X134220128Y-96235000D01*
X134651925Y-96149110D01*
X135058669Y-95980631D01*
X135424729Y-95736038D01*
X135736038Y-95424729D01*
X135980631Y-95058669D01*
X136149110Y-94651925D01*
X136235000Y-94220128D01*
X136235000Y-93779872D01*
X136149110Y-93348075D01*
X135980631Y-92941331D01*
X135736038Y-92575271D01*
X135424729Y-92263962D01*
X135058669Y-92019369D01*
X134651925Y-91850890D01*
X134220128Y-91765000D01*
X133779872Y-91765000D01*
X133348075Y-91850890D01*
X132941331Y-92019369D01*
X132575271Y-92263962D01*
X132263962Y-92575271D01*
X132019369Y-92941331D01*
X131850890Y-93348075D01*
X131765000Y-93779872D01*
X124585004Y-93779872D01*
X123795000Y-92989869D01*
X123795000Y-92765107D01*
X123813475Y-92746632D01*
X123975990Y-92503411D01*
X124087932Y-92233158D01*
X124145000Y-91946260D01*
X124145000Y-91653740D01*
X124087932Y-91366842D01*
X123975990Y-91096589D01*
X123968246Y-91085000D01*
X135633647Y-91085000D01*
X135727955Y-91075711D01*
X135859659Y-91088625D01*
G37*
X135859659Y-91088625D02*
X136109429Y-91164035D01*
X136339792Y-91286522D01*
X136541980Y-91451422D01*
X136708286Y-91652450D01*
X136832378Y-91881954D01*
X136909531Y-92131195D01*
X136924311Y-92271819D01*
X136915000Y-92366354D01*
X136915000Y-107718330D01*
X136850000Y-107711928D01*
X135150000Y-107711928D01*
X135025518Y-107724188D01*
X134905820Y-107760498D01*
X134795506Y-107819463D01*
X134698815Y-107898815D01*
X134619463Y-107995506D01*
X134582317Y-108065000D01*
X134535000Y-108065000D01*
X134535000Y-104255752D01*
X134540491Y-104200000D01*
X134518577Y-103977501D01*
X134453676Y-103763553D01*
X134348284Y-103566377D01*
X134241989Y-103436856D01*
X134241987Y-103436854D01*
X134206449Y-103393551D01*
X134163146Y-103358013D01*
X124585004Y-93779872D01*
X131765000Y-93779872D01*
X131765000Y-94220128D01*
X131850890Y-94651925D01*
X132019369Y-95058669D01*
X132263962Y-95424729D01*
X132575271Y-95736038D01*
X132941331Y-95980631D01*
X133348075Y-96149110D01*
X133779872Y-96235000D01*
X134220128Y-96235000D01*
X134651925Y-96149110D01*
X135058669Y-95980631D01*
X135424729Y-95736038D01*
X135736038Y-95424729D01*
X135980631Y-95058669D01*
X136149110Y-94651925D01*
X136235000Y-94220128D01*
X136235000Y-93779872D01*
X136149110Y-93348075D01*
X135980631Y-92941331D01*
X135736038Y-92575271D01*
X135424729Y-92263962D01*
X135058669Y-92019369D01*
X134651925Y-91850890D01*
X134220128Y-91765000D01*
X133779872Y-91765000D01*
X133348075Y-91850890D01*
X132941331Y-92019369D01*
X132575271Y-92263962D01*
X132263962Y-92575271D01*
X132019369Y-92941331D01*
X131850890Y-93348075D01*
X131765000Y-93779872D01*
X124585004Y-93779872D01*
X123795000Y-92989869D01*
X123795000Y-92765107D01*
X123813475Y-92746632D01*
X123975990Y-92503411D01*
X124087932Y-92233158D01*
X124145000Y-91946260D01*
X124145000Y-91653740D01*
X124087932Y-91366842D01*
X123975990Y-91096589D01*
X123968246Y-91085000D01*
X135633647Y-91085000D01*
X135727955Y-91075711D01*
X135859659Y-91088625D01*
G36*
X132265000Y-104670133D02*
G01*
X132265001Y-107719697D01*
X132189851Y-107679528D01*
X132023255Y-107628992D01*
X131850001Y-107611928D01*
X130949999Y-107611928D01*
X130776745Y-107628992D01*
X130610149Y-107679528D01*
X130456613Y-107761595D01*
X130391539Y-107815000D01*
X130008461Y-107815000D01*
X129943387Y-107761595D01*
X129789851Y-107679528D01*
X129623255Y-107628992D01*
X129450001Y-107611928D01*
X128692060Y-107611928D01*
X127735000Y-106654869D01*
X127735000Y-100140132D01*
X132265000Y-104670133D01*
G37*
X132265000Y-104670133D02*
X132265001Y-107719697D01*
X132189851Y-107679528D01*
X132023255Y-107628992D01*
X131850001Y-107611928D01*
X130949999Y-107611928D01*
X130776745Y-107628992D01*
X130610149Y-107679528D01*
X130456613Y-107761595D01*
X130391539Y-107815000D01*
X130008461Y-107815000D01*
X129943387Y-107761595D01*
X129789851Y-107679528D01*
X129623255Y-107628992D01*
X129450001Y-107611928D01*
X128692060Y-107611928D01*
X127735000Y-106654869D01*
X127735000Y-100140132D01*
X132265000Y-104670133D01*
M02*
