M48
; DRILL file {KiCad 5.1.5+dfsg1-2build2} date Tue 05 Apr 2022 03:01:23 PM EDT
; FORMAT={-:-/ absolute / inch / decimal}
; #@! TF.CreationDate,2022-04-05T15:01:23-04:00
; #@! TF.GenerationSoftware,Kicad,Pcbnew,5.1.5+dfsg1-2build2
; #@! TF.FileFunction,Plated,1,2,PTH
FMAT,2
INCH
T1C0.0315
T2C0.0394
T3C0.0591
%
G90
G05
T1
X4.26Y-2.18
X4.75Y-1.71
X4.84Y-2.34
T2
X4.97Y-2.44
X4.97Y-2.54
X4.97Y-2.64
X4.97Y-2.07
X4.97Y-2.17
X4.97Y-2.27
X3.4449Y-1.8736
X3.4449Y-1.9736
X3.4449Y-2.0736
X3.4449Y-2.1736
X3.4449Y-2.2736
X3.4449Y-2.3736
X3.4449Y-2.4736
X3.4449Y-2.5736
T3
X3.44Y-2.91
X3.44Y-3.04
X3.4449Y-1.2866
X3.59Y-2.35
X3.64Y-1.5
X3.64Y-1.61
X3.71Y-1.83
X3.9034Y-1.2866
X3.95Y-2.74
X4.05Y-2.74
X4.23Y-2.37
X4.25Y-1.48
X4.52Y-2.75
X4.55Y-3.08
X4.5634Y-1.2866
X4.63Y-2.75
X4.67Y-3.08
X4.79Y-3.08
X4.9Y-1.47
T0
M30
